<svg width="276" height="21" preserveAspectRatio="none" viewBox="0 0 276 21" fill="none" xmlns="http://www.w3.org/2000/svg">
<path d="M220.889 5.69801C148.96 4.37297 76.8958 -0.328984 5.00203 3.42417C-2.58981 3.8205 6.40366 2.73232 8.13706 2.68517C28.3963 2.13414 48.8722 3.28675 69.1165 3.76525C96.975 4.42371 124.756 5.71449 152.41 8.99509C164.205 10.3943 176.026 12.5628 187.94 12.8606C200.255 13.1684 163.304 13.2824 150.996 13.7702C128.57 14.659 106.105 12.4404 83.6852 12.0648C61.2752 11.6893 38.7881 11.5208 16.3742 11.8942C13.0207 11.9501 9.95244 11.9952 6.66175 12.349C3.15288 12.7263 5.9081 12.8264 6.84617 12.8606C20.9742 13.3763 34.9446 15.3851 49.1384 15.7029C81.4842 16.4272 113.912 16.0444 146.263 15.8735C180.812 15.6909 215.626 13.7253 250.149 15.5324C258.295 15.9588 266.173 17.1905 274 19" stroke="#7B3589" stroke-width="3" stroke-linecap="round"/>
</svg>
