<svg width="499" height="17" viewBox="0 0 499 17" fill="none" xmlns="http://www.w3.org/2000/svg">
<path d="M400.346 4.82789C269.445 3.81462 138.299 0.219012 7.46326 3.08907C-6.35278 3.39214 10.014 2.56001 13.1686 2.52395C50.0374 2.10258 87.3005 2.98399 124.142 3.34989C174.84 3.85343 225.397 4.84049 275.724 7.34918C297.189 8.41914 318.701 10.0775 340.384 10.3052C362.795 10.5405 295.549 10.6277 273.151 11.0007C232.338 11.6804 191.456 9.98382 150.655 9.69659C109.872 9.4095 68.9489 9.28059 28.1589 9.56618C22.0561 9.60891 16.4723 9.64336 10.4837 9.91395C4.09806 10.2025 9.11217 10.279 10.8193 10.3052C36.5303 10.6996 61.9544 12.2357 87.7849 12.4787C146.649 13.0326 205.663 12.7399 264.537 12.6091C327.412 12.4695 390.767 10.9664 453.595 12.3483C468.42 12.6744 482.756 13.6163 497 15" stroke="#F89C1E" stroke-width="3" stroke-linecap="round"/>
</svg>
