<svg width="184" height="101" viewBox="0 0 184 101" fill="none" xmlns="http://www.w3.org/2000/svg">
<path d="M112.783 27.3288H106.016V21.9014H104.133V34.6468H106.016V29.2199H112.783V34.6468H114.667V21.9014H112.783V27.3288Z" fill="white"/>
<path d="M127.859 31.4489C126.977 32.3257 125.919 32.7644 124.688 32.7644C123.451 32.7644 122.39 32.3257 121.509 31.4489C120.633 30.5674 120.193 29.5103 120.193 28.279C120.193 27.0413 120.633 25.9796 121.509 25.0995C122.39 24.2235 123.451 23.784 124.688 23.784C125.919 23.784 126.977 24.2235 127.859 25.0995C128.736 25.9796 129.174 27.0413 129.174 28.279C129.174 29.5103 128.736 30.5672 127.859 31.4489ZM124.688 21.9014C122.929 21.9014 121.426 22.5228 120.176 23.7668C118.932 25.0159 118.311 26.5194 118.311 28.279C118.311 30.0307 118.932 31.5314 120.176 32.7808C121.426 34.0242 122.929 34.6468 124.688 34.6468C126.441 34.6468 127.941 34.0242 129.191 32.7808C130.434 31.5314 131.056 30.0307 131.056 28.279C131.056 26.5194 130.434 25.0159 129.191 23.7668C127.941 22.5228 126.441 21.9014 124.688 21.9014Z" fill="white"/>
<path d="M157.63 30.1529L148.98 21.9271V34.6465H150.863V26.3251L159.513 34.5393V21.9014H157.63V30.1529Z" fill="white"/>
<path d="M166.556 21.9355H164.671V34.6467H166.556V21.9355Z" fill="white"/>
<path d="M178.503 28.1184L183.557 21.9014H181.124L177.287 26.627L173.45 21.9014H171.024L176.07 28.1184L170.776 34.6468H173.201L177.287 29.6197L181.373 34.6468H183.797L178.503 28.1184Z" fill="white"/>
<path d="M134.107 23.8209H141.92H142.093L138.351 27.3712H138.323V29.2653H142.772V32.8155H134.107V34.7001H144.656V27.3712H140.926L144.656 23.8289V23.8209V22.4414V21.9355H134.107V23.8209Z" fill="white"/>
<path d="M98.6193 26.8125C98.2768 27.1572 97.8579 27.3288 97.368 27.3288H97.069H96.7885H92.3746V24.8954V23.7914V23.7846H96.8485L97.368 23.7837C97.8579 23.7837 98.2768 23.9591 98.6193 24.3082C98.9684 24.6512 99.1435 25.0691 99.1435 25.5604C99.1435 26.0462 98.9687 26.4635 98.6193 26.8125ZM99.9518 22.9763C99.2355 22.2598 98.3727 21.9014 97.3677 21.9014H90.4922V23.7914V30.4532V34.6468H92.3743V30.4532V29.2202H97.368C98.373 29.2202 99.2355 28.861 99.9521 28.1458C100.668 27.4288 101.026 26.5679 101.026 25.5604C101.026 24.5537 100.668 23.6917 99.9518 22.9763Z" fill="white"/>
<path d="M183.797 12.1333H90.4922V12.8306H183.797V12.1333Z" fill="white"/>
<path d="M183.797 82.8701H90.4922V83.5674H183.797V82.8701Z" fill="white"/>
<path d="M91.5742 45.0977L96.5736 45.6413L97.7557 57.8625L105.564 43.1978L116.241 44.7582L104.579 58.9774L115.53 65.7989L107.582 72.185L97.6378 59.7994L99.5252 70.8378L91.5742 72.3552V45.0977Z" fill="white"/>
<path d="M118.765 68.0817L119.166 52.93L126.707 52.3181L128.426 71.8149L118.487 73.6814L118.765 68.0817ZM122.747 47.1436C121.658 47.1436 120.792 46.7844 120.022 46.0131C119.25 45.2415 118.891 44.3754 118.891 43.2876C118.891 43.0794 118.905 42.8824 118.934 42.7018C119.054 41.867 119.413 41.1704 120.032 40.5515C120.796 39.7876 121.659 39.4316 122.747 39.4316C123.835 39.4316 124.701 39.7909 125.472 40.5622C126.243 41.3335 126.603 42.1996 126.603 43.2876C126.603 44.3754 126.243 45.2415 125.472 46.0128C124.701 46.7842 123.835 47.1436 122.747 47.1436Z" fill="white"/>
<path d="M131.134 45.0098C140.014 45.1457 146.779 46.374 151.256 48.6657C155.722 50.9517 157.893 54.2573 157.893 58.7703C157.893 63.2984 155.828 66.6084 151.578 68.8902C147.316 71.1787 140.865 72.4018 132.388 72.5322L131.134 45.0098ZM139.646 62.8861H141.191C148.76 62.8861 150.349 59.6693 150.349 56.971C150.349 53.0182 146.818 51.0142 139.852 51.0142H138.011L139.646 62.8861Z" fill="white"/>
<path d="M161.988 66.5278C164.135 66.7224 165.931 66.8205 167.346 66.8205C170.045 66.8205 171.985 66.5284 172.68 65.1022L172.726 65.0069L172.76 64.9066C172.842 64.6592 172.884 64.4038 172.884 64.1479C172.884 63.3316 172.527 61.392 169.23 60.9878C159.534 59.5935 159.535 55.2426 159.535 53.8123C159.535 53.2673 159.574 52.6782 159.649 52.0612C160.163 47.1607 166.159 44.1259 177.48 43.0088L178.904 50.638H178.832C172.511 50.638 169.913 51.3348 169.336 53.2019C169.255 53.4337 169.214 53.6737 169.214 53.9164C169.214 55.3171 170.097 56.9915 174.299 57.0274C182.811 57.5585 183.797 62.0364 183.797 65.3614V65.8007C183.695 71.0527 177.362 73.9976 164.972 74.5319L161.988 66.5278Z" fill="white"/>
<path d="M85.7039 73.9205L81.1434 74.7442C79.4972 83.4516 74.7724 90.768 67.8383 95.3493C63.1614 97.8136 57.8384 99.2102 52.1948 99.2102C48.1497 99.2102 44.2693 98.4923 40.6736 97.1787C37.4407 95.9337 31.6171 91.6264 30.3011 86.9843C32.4191 89.2588 34.929 91.0891 37.7131 92.4109C40.8879 93.9749 44.4576 94.8558 48.2286 94.8558C50.6215 94.8558 52.9332 94.5009 55.1143 93.842L55.2746 93.7932C63.1789 91.4532 69.7429 85.214 72.0831 76.7002L69.7261 77.1014C67.6144 84.7767 61.1968 90.9156 53.9004 93.2764C52.0863 93.7392 50.1858 93.9869 48.2286 93.9869C42.6697 93.9869 37.5657 92.004 33.5861 88.7094C30.9951 86.5237 29.0577 82.7307 28.3716 81.0084C28.941 81.4794 32.8356 84.8128 37.4689 86.1563C36.6434 83.861 36.1916 81.3884 36.1916 78.8098C36.1916 73.5232 38.0813 68.6792 41.2203 64.9122C43.0446 62.6805 45.3541 60.8033 48.0667 59.4484C51.0245 57.9414 54.3684 57.0857 57.9145 57.0857C59.6432 57.0857 61.3176 57.3035 62.9277 57.6846C65.4479 55.8255 67.2599 53.7138 68.7255 50.7689C64.6412 48.0601 52.1608 47.3852 40.2029 58.4702C40.2029 58.4702 49.7765 45.5903 70.6873 46.0243C71.0805 44.2764 71.6521 40.9076 71.7918 39.0685C64.7221 39.1866 55.7708 40.6394 47.7209 45.9183C51.8531 42.5741 58.4302 37.1352 71.9639 36.031C71.9713 34.0554 71.8302 31.6357 71.6472 29.6892C64.5659 30.0808 56.4599 31.8821 50.6911 37.2103C50.6911 37.2103 57.9595 29.3147 71.2477 26.4541C70.9937 24.6811 70.6577 22.571 70.3251 20.9429C64.3207 21.7416 58.0425 23.7401 53.3256 28.0984C53.3256 28.0984 59.5013 21.7098 69.7146 18.1599C69.325 16.5011 68.9091 14.9075 68.4857 13.4029C63.6617 14.4644 58.8988 16.44 55.1318 19.92C55.1318 19.92 59.8684 15.0173 67.9057 11.4156C67.3078 9.43021 67.3169 9.3987 66.788 7.89334C63.3929 8.09939 59.5906 9.7401 55.3551 13.1569C55.3551 13.1569 59.7712 9.28965 65.8729 5.24897C64.9366 2.64569 64.1722 0.854004 64.1722 0.854004L22.3548 47.9601C22.3217 47.9971 19.6154 51.1711 18.821 56.9177C18.1686 56.681 17.3741 56.5193 16.9044 56.4571C11.9826 55.7795 7.40922 57.4024 4.27548 60.9214C4.9824 53.3626 7.41333 47.1208 11.6965 41.8557C14.7236 38.4397 18.3837 35.569 22.5184 33.4439L22.4167 33.2501C18.3769 35.3303 14.7867 38.1098 11.7916 41.4197L11.7809 41.4099C11.7006 41.5093 11.6233 41.5989 11.5472 41.6951C7.76048 45.9522 4.95637 51.0536 3.41978 56.6344C2.78327 58.9577 2.36899 61.3464 2.18185 63.7327L0.894043 62.8906L1.8303 77.9744L2.87643 78.1853L4.56811 81.6336L5.64904 80.4623C5.64904 80.4623 5.38874 76.1476 5.79618 74.6699C6.37953 72.5524 7.71747 70.7476 9.5719 69.5782L12.3275 69.1606C12.1228 69.959 12.7358 70.6657 13.4652 71.3616C14.1943 72.0543 15.0459 72.7368 15.3264 73.4898C15.8418 75.1083 14.6031 75.7325 13.3961 76.3109C13.0194 76.3925 12.6621 76.5476 12.3404 76.7786C11.7195 77.2211 11.3041 77.8839 11.1819 78.6413C11.0584 79.3972 11.2296 80.1518 11.6776 80.7735C11.785 80.9207 11.9056 81.0653 12.039 81.1876L12.0878 81.216L12.1804 81.2004C12.2239 81.1684 12.2363 81.1158 12.2174 81.0662C11.7606 80.037 12.2672 78.5204 13.4501 77.3598C15.3264 78.1571 18.775 79.6266 18.9021 79.7123C18.0196 82.0295 16.1232 83.8985 13.6112 84.9663C11.6488 84.937 9.93796 86.3979 9.69355 88.3894C9.66424 88.6321 9.6615 88.8886 9.6815 89.1368C9.68561 89.2374 9.75849 89.3243 9.85549 89.3517L9.88919 89.3601C10.0073 89.3747 10.1172 89.3053 10.1492 89.1952C10.6191 87.8112 12.4596 86.8054 14.6261 86.7519C15.0089 86.7415 16.2057 86.8706 16.2057 86.8706L14.8267 85.6622C17.5587 85.5083 20.145 84.4054 22.1386 82.5732L22.146 82.5945C23.3711 85.0655 25.0872 87.2629 27.0517 89.196C33.3554 95.8918 42.296 100.08 52.1948 100.08C57.845 100.08 63.1803 98.7148 67.8928 96.2989L67.8942 96.3014L67.9687 96.26C76.6934 91.7587 83.2675 83.6511 85.7039 73.9205Z" fill="white"/>
</svg>
