<svg width="163" height="89" viewBox="0 0 163 89" fill="none" xmlns="http://www.w3.org/2000/svg">
<path d="M113.064 27.2451C112.279 28.0259 111.336 28.4165 110.24 28.4165C109.138 28.4165 108.194 28.0259 107.409 27.2451C106.629 26.4602 106.237 25.5188 106.237 24.4223C106.237 23.3201 106.629 22.3746 107.409 21.5909C108.194 20.8108 109.138 20.4194 110.24 20.4194C111.336 20.4194 112.279 20.8108 113.064 21.5909C113.845 22.3746 114.235 23.3201 114.235 24.4223C114.235 25.5188 113.845 26.4599 113.064 27.2451ZM110.24 18.7429C108.674 18.7429 107.335 19.2963 106.222 20.4041C105.114 21.5165 104.561 22.8553 104.561 24.4223C104.561 25.9822 105.114 27.3185 106.222 28.4312C107.335 29.5385 108.674 30.0928 110.24 30.0928C111.801 30.0928 113.137 29.5385 114.25 28.4312C115.357 27.3185 115.911 25.9822 115.911 24.4223C115.911 22.8553 115.357 21.5165 114.25 20.4041C113.137 19.2963 111.801 18.7429 110.24 18.7429Z" fill="white"/>
<path d="M139.575 26.091L131.872 18.7659V30.0926H133.549V22.6823L141.252 29.9972V18.7429H139.575V26.091Z" fill="white"/>
<path d="M147.523 18.7734H145.845V30.0928H147.523V18.7734Z" fill="white"/>
<path d="M158.163 24.2793L162.664 18.7429H160.496L157.08 22.9512L153.663 18.7429H151.503L155.996 24.2793L151.281 30.0928H153.441L157.08 25.6162L160.718 30.0928H162.877L158.163 24.2793Z" fill="white"/>
<path d="M118.628 20.4524H125.585H125.74L122.407 23.6139H122.382V25.3006H126.344V28.4622H118.628V30.1404H128.022V23.6139H124.7L128.022 20.4594V20.4524V19.2238V18.7734H118.628V20.4524Z" fill="white"/>
<path d="M87.0254 23.1164C86.7204 23.4233 86.3473 23.5761 85.911 23.5761H85.6448H85.395H81.4644V21.4091V20.426V20.4199H85.4484L85.911 20.4192C86.3473 20.4192 86.7204 20.5754 87.0254 20.8862C87.3362 21.1917 87.4921 21.5638 87.4921 22.0013C87.4921 22.4339 87.3365 22.8055 87.0254 23.1164ZM88.2119 19.7001C87.5741 19.0621 86.8058 18.7429 85.9108 18.7429H79.7881V20.426V26.3584V30.0928H81.4641V26.3584V25.2604H85.911C86.806 25.2604 87.5741 24.9405 88.2122 24.3037C88.8495 23.6651 89.1689 22.8985 89.1689 22.0013C89.1687 21.1048 88.8495 20.3372 88.2119 19.7001Z" fill="white"/>
<path d="M162.877 10.0445H79.7881V10.6655H162.877V10.0445Z" fill="white"/>
<path d="M162.877 73.0363H79.7881V73.6572H162.877V73.0363Z" fill="white"/>
<path d="M80.7517 39.3994L85.2037 39.8835L86.2564 50.7666L93.2096 37.7075L102.718 39.0971L92.3329 51.7595L102.084 57.8341L95.0064 63.521L86.1514 52.4915L87.8321 62.3212L80.7517 63.6725V39.3994Z" fill="white"/>
<path d="M104.965 59.8671L105.323 46.3744L112.038 45.8296L113.569 63.1916L104.718 64.8538L104.965 59.8671ZM108.511 41.2217C107.542 41.2217 106.771 40.9018 106.085 40.2149C105.398 39.5278 105.078 38.7565 105.078 37.7878C105.078 37.6024 105.09 37.427 105.116 37.2662C105.223 36.5227 105.542 35.9025 106.094 35.3513C106.774 34.671 107.543 34.354 108.511 34.354C109.48 34.354 110.251 34.6739 110.938 35.3608C111.625 36.0476 111.945 36.8189 111.945 37.7878C111.945 38.7565 111.625 39.5278 110.938 40.2147C110.251 40.9015 109.48 41.2217 108.511 41.2217Z" fill="white"/>
<path d="M115.98 39.3211C123.888 39.4421 129.912 40.5359 133.899 42.5768C137.876 44.6125 139.81 47.5561 139.81 51.575C139.81 55.6074 137.97 58.5549 134.186 60.5869C130.39 62.6248 124.646 63.714 117.097 63.8302L115.98 39.3211ZM123.56 55.2401H124.936C131.677 55.2401 133.091 52.3756 133.091 49.9727C133.091 46.4527 129.946 44.6681 123.744 44.6681H122.104L123.56 55.2401Z" fill="white"/>
<path d="M143.456 58.4831C145.369 58.6564 146.967 58.7437 148.227 58.7437C150.631 58.7437 152.359 58.4836 152.978 57.2136L153.019 57.1287L153.049 57.0394C153.122 56.819 153.159 56.5916 153.159 56.3637C153.159 55.6369 152.842 53.9096 149.906 53.5497C141.271 52.308 141.272 48.4335 141.272 47.1598C141.272 46.6745 141.306 46.1499 141.373 45.6004C141.831 41.2365 147.17 38.5339 157.252 37.5391L158.52 44.3331H158.456C152.827 44.3331 150.514 44.9536 150 46.6162C149.928 46.8226 149.891 47.0363 149.891 47.2525C149.891 48.4999 150.678 49.9909 154.42 50.0229C161.999 50.4958 162.877 54.4835 162.877 57.4444V57.8356C162.787 62.5126 157.147 65.1351 146.113 65.6109L143.456 58.4831Z" fill="white"/>
<path d="M75.5241 65.0665L71.463 65.8C69.997 73.554 65.7895 80.0693 59.6146 84.149C55.4497 86.3435 50.7095 87.5872 45.6839 87.5872C42.0817 87.5872 38.6262 86.9479 35.4242 85.7782C32.5452 84.6695 27.3592 80.8338 26.1873 76.6999C28.0734 78.7254 30.3085 80.3553 32.7877 81.5324C35.615 82.9251 38.7938 83.7096 42.152 83.7096C44.2828 83.7096 46.3415 83.3936 48.2837 82.8068L48.4264 82.7633C55.4653 80.6796 61.3106 75.1235 63.3946 67.5419L61.2957 67.8991C59.4152 74.734 53.7002 80.2008 47.2028 82.3032C45.5872 82.7153 43.8949 82.9358 42.152 82.9358C37.2017 82.9358 32.6565 81.17 29.1126 78.2362C26.8054 76.2898 25.08 72.9121 24.4691 71.3783C24.9761 71.7977 28.4443 74.7662 32.5703 75.9626C31.8352 73.9186 31.4328 71.7167 31.4328 69.4204C31.4328 64.7127 33.1157 60.399 35.9109 57.0445C37.5355 55.0571 39.5922 53.3855 42.0078 52.1789C44.6418 50.8369 47.6195 50.0749 50.7774 50.0749C52.3168 50.0749 53.8079 50.2689 55.2416 50.6083C57.4859 48.9527 59.0995 47.0722 60.4046 44.4497C56.7676 42.0375 45.6536 41.4366 35.005 51.3078C35.005 51.3078 43.5303 39.8381 62.1517 40.2246C62.5018 38.6681 63.0108 35.6682 63.1352 34.0304C56.8395 34.1356 48.8683 35.4293 41.6998 40.1302C45.3796 37.1522 51.2366 32.3088 63.2885 31.3254C63.2951 29.5662 63.1694 27.4114 63.0064 25.6781C56.7005 26.0267 49.482 27.6308 44.3448 32.3756C44.3448 32.3756 50.8174 25.3445 62.6507 22.7972C62.4245 21.2182 62.1253 19.3392 61.8291 17.8894C56.4821 18.6006 50.8913 20.3803 46.6909 24.2614C46.6909 24.2614 52.1904 18.5723 61.2855 15.411C60.9385 13.9339 60.5681 12.5148 60.1911 11.175C55.8953 12.1202 51.6538 13.8795 48.2993 16.9785C48.2993 16.9785 52.5173 12.6126 59.6746 9.40523C59.1422 7.6372 59.1502 7.60914 58.6793 6.26861C55.6559 6.45209 52.2699 7.91316 48.4982 10.9558C48.4982 10.9558 52.4307 7.51203 57.8644 3.91376C57.0306 1.59552 56.3498 0 56.3498 0L19.1111 41.9485C19.0815 41.9814 16.6715 44.8079 15.9642 49.9253C15.3832 49.7145 14.6756 49.5705 14.2574 49.5152C9.87444 48.9118 5.80183 50.357 3.0112 53.4907C3.64072 46.7594 5.80549 41.2011 9.6197 36.5124C12.3154 33.4705 15.5748 30.9141 19.2567 29.0216L19.1662 28.8491C15.5687 30.7015 12.3715 33.1767 9.70437 36.1242L9.69485 36.1154C9.62336 36.204 9.55455 36.2838 9.48672 36.3694C6.11464 40.1604 3.61754 44.7032 2.24919 49.673C1.68238 51.7419 1.31345 53.8691 1.1468 55.9941L0 55.2443L0.83375 68.6765L1.76534 68.8644L3.2718 71.9351L4.23438 70.892C4.23438 70.892 4.00258 67.0497 4.36541 65.7338C4.88488 63.8482 6.07633 62.241 7.72773 61.1996L10.1816 60.8277C9.99937 61.5388 10.5452 62.168 11.1947 62.7878C11.844 63.4046 12.6024 64.0124 12.8522 64.6829C13.3112 66.1242 12.2081 66.6801 11.1332 67.1952C10.7977 67.2679 10.4796 67.406 10.1931 67.6117C9.6402 68.0057 9.27029 68.596 9.16147 69.2704C9.05143 69.9436 9.20392 70.6156 9.60286 71.1692C9.69851 71.3002 9.80587 71.429 9.9247 71.5379L9.96813 71.5632L10.0506 71.5493C10.0894 71.5208 10.1004 71.4739 10.0835 71.4298C9.6768 70.5133 10.128 69.1628 11.1813 68.1292C12.8522 68.8392 15.9232 70.1478 16.0364 70.2242C15.2505 72.2877 13.5618 73.952 11.3248 74.9029C9.57725 74.8768 8.05371 76.1778 7.83606 77.9512C7.80995 78.1674 7.80751 78.3957 7.82532 78.6168C7.82898 78.7063 7.89389 78.7837 7.98027 78.8081L8.01028 78.8157C8.11544 78.8286 8.21328 78.7669 8.24183 78.6688C8.66029 77.4363 10.2992 76.5406 12.2285 76.493C12.5694 76.4837 13.6352 76.5987 13.6352 76.5987L12.4072 75.5226C14.8401 75.3855 17.1432 74.4034 18.9185 72.7718L18.9251 72.7908C20.0161 74.9912 21.5442 76.9481 23.2937 78.6695C28.9072 84.6321 36.8689 88.3614 45.6839 88.3614C50.7154 88.3614 55.4666 87.1461 59.6631 84.9947L59.6643 84.9969L59.7307 84.9601C67.5002 80.9516 73.3545 73.7317 75.5241 65.0665Z" fill="white"/>
</svg>
