<svg width="46" height="46" viewBox="0 0 46 46" fill="none" xmlns="http://www.w3.org/2000/svg">
<path d="M45.2724 22.6373C45.2727 18.16 43.9453 13.7832 41.4581 10.0604C38.9708 6.33758 35.4355 3.43594 31.2991 1.72242C27.1627 0.0089086 22.6111 -0.439507 18.2199 0.433883C13.8287 1.30727 9.79505 3.46324 6.62916 6.62913C3.46327 9.79502 1.3073 13.8286 0.433913 18.2199C-0.439477 22.6111 0.00893912 27.1627 1.72245 31.2991C3.43597 35.4355 6.33761 38.9708 10.0604 41.458C13.7833 43.9453 18.1601 45.2727 22.6373 45.2723C28.6404 45.2719 34.3974 42.887 38.6422 38.6422C42.8871 34.3974 45.2719 28.6403 45.2724 22.6373ZM2.0588 22.6373C2.0588 18.5666 3.26589 14.5873 5.52744 11.2027C7.78898 7.81805 11.0034 5.18004 14.7642 3.62226C18.525 2.06449 22.6633 1.6569 26.6558 2.45105C30.6482 3.2452 34.3155 5.20541 37.1939 8.08381C40.0723 10.9622 42.0326 14.6295 42.8267 18.622C43.6209 22.6144 43.2133 26.7527 41.6555 30.5135C40.0977 34.2744 37.4597 37.4888 34.0751 39.7503C30.6904 42.0119 26.7112 43.219 22.6405 43.219C17.1819 43.219 11.9469 41.0505 8.08704 37.1907C4.22722 33.3309 2.0588 28.0959 2.0588 22.6373Z" fill="white"/>
<path d="M23.5046 35.7021V22.6367H27.8124L28.4937 18.3066H23.5014V16.1351C23.5014 15.0055 23.8716 13.927 25.4942 13.927H28.7346V9.6048H24.1332C20.2642 9.6048 19.2096 12.1576 19.2096 15.6836V18.3034H16.5547V22.6351H19.2096V35.7005L23.5046 35.7021Z" fill="white"/>
</svg>
