<svg width="22" height="22" viewBox="0 0 22 22" fill="none" xmlns="http://www.w3.org/2000/svg">
<path d="M10.8079 2.34666C13.6521 2.34666 13.9894 2.35731 15.1123 2.40879C16.3249 2.46383 17.4496 2.70706 18.3151 3.57254C19.1805 4.43803 19.4238 5.56273 19.4788 6.7753C19.5303 7.89822 19.5409 8.23553 19.5409 11.0797C19.5409 13.9238 19.5303 14.2611 19.4788 15.384C19.4238 16.5966 19.1805 17.7213 18.3151 18.5868C17.4496 19.4523 16.3249 19.6955 15.1123 19.7505C13.9894 19.802 13.6521 19.8127 10.8079 19.8127C7.96381 19.8127 7.62649 19.802 6.50357 19.7505C5.291 19.6955 4.16631 19.4523 3.30082 18.5868C2.43533 17.7213 2.1921 16.5966 2.13707 15.384C2.08558 14.2611 2.07493 13.9238 2.07493 11.0797C2.07493 8.23553 2.08558 7.89822 2.13707 6.7753C2.1921 5.56273 2.43533 4.43803 3.30082 3.57254C4.16631 2.70706 5.291 2.46383 6.50357 2.40879C7.62649 2.35731 7.96381 2.34666 10.8079 2.34666ZM10.8079 0.42749C7.91498 0.42749 7.55192 0.439918 6.41569 0.491403C4.68471 0.570407 3.16411 0.994718 1.94355 2.21528C0.72299 3.43584 0.298678 4.95644 0.219675 6.68742C0.168189 7.82365 0.155762 8.18671 0.155762 11.0797C0.155762 13.9726 0.168189 14.3357 0.219675 15.4719C0.298678 17.2029 0.72299 18.7235 1.94355 19.944C3.16411 21.1646 4.68471 21.5889 6.41569 21.6679C7.55192 21.7194 7.91498 21.7318 10.8079 21.7318C13.7009 21.7318 14.064 21.7194 15.2002 21.6679C16.9312 21.5889 18.4518 21.1646 19.6723 19.944C20.8929 18.7235 21.3172 17.2029 21.3962 15.4719C21.4477 14.3357 21.4601 13.9726 21.4601 11.0797C21.4601 8.18671 21.4477 7.82365 21.3962 6.68742C21.3172 4.95644 20.8929 3.43584 19.6723 2.21528C18.4518 0.994718 16.9312 0.570407 15.2002 0.491403C14.064 0.439918 13.7009 0.42749 10.8079 0.42749Z" fill="white"/>
<path d="M10.808 5.60974C7.78725 5.60974 5.33813 8.05885 5.33813 11.0796C5.33813 14.1004 7.78725 16.5495 10.808 16.5495C13.8288 16.5495 16.2779 14.1004 16.2779 11.0796C16.2779 8.05885 13.8288 5.60974 10.808 5.60974ZM10.808 14.6304C8.84714 14.6304 7.2573 13.0405 7.2573 11.0796C7.2573 9.11874 8.84714 7.52891 10.808 7.52891C12.7689 7.52891 14.3588 9.11874 14.3588 11.0796C14.3588 13.0405 12.7689 14.6304 10.808 14.6304Z" fill="white"/>
<path d="M16.4943 6.67145C17.2003 6.67145 17.7726 6.09915 17.7726 5.39319C17.7726 4.68723 17.2003 4.11493 16.4943 4.11493C15.7884 4.11493 15.2161 4.68723 15.2161 5.39319C15.2161 6.09915 15.7884 6.67145 16.4943 6.67145Z" fill="white"/>
</svg>
