<svg width="46" height="46" viewBox="0 0 46 46" fill="none" xmlns="http://www.w3.org/2000/svg">
<path d="M23.3641 0.203705C18.8872 0.203705 14.5108 1.52149 10.7883 3.99041C7.06588 6.45934 4.16459 9.96851 2.45133 14.0742C0.738079 18.1799 0.289814 22.6976 1.16322 27.0562C2.03663 31.4147 4.19249 35.4183 7.35817 38.5607C10.5239 41.703 14.5572 43.843 18.9481 44.7099C23.339 45.5769 27.8904 45.132 32.0265 43.4313C36.1627 41.7307 39.6979 38.8508 42.1852 35.1558C44.6724 31.4608 46 27.1166 46 22.6727C46 16.7135 43.6152 10.9985 39.3701 6.78472C35.1251 2.57097 29.3675 0.203705 23.3641 0.203705V0.203705ZM23.3641 43.0987C19.2943 43.0987 15.3158 41.9008 11.9318 39.6563C8.54777 37.4119 5.91027 34.2218 4.35279 30.4894C2.79531 26.757 2.38781 22.65 3.1818 18.6878C3.9758 14.7255 5.93564 11.0859 8.81349 8.22931C11.6913 5.37267 15.3579 3.42728 19.3496 2.63914C23.3413 1.85099 27.4788 2.2555 31.2389 3.8015C34.999 5.3475 38.2128 7.96555 40.4739 11.3246C42.735 14.6836 43.9419 18.6328 43.9419 22.6727C43.9419 28.09 41.7739 33.2855 37.9148 37.1161C34.0557 40.9467 28.8217 43.0987 23.3641 43.0987Z" fill="white"/>
<g clip-path="url(#clip0)">
<path d="M23.8079 14.3467C26.6521 14.3467 26.9894 14.3573 28.1123 14.4088C29.3249 14.4638 30.4496 14.7071 31.3151 15.5725C32.1805 16.438 32.4238 17.5627 32.4788 18.7753C32.5303 19.8982 32.5409 20.2355 32.5409 23.0797C32.5409 25.9238 32.5303 26.2611 32.4788 27.384C32.4238 28.5966 32.1805 29.7213 31.3151 30.5868C30.4496 31.4523 29.3249 31.6955 28.1123 31.7505C26.9894 31.802 26.6521 31.8127 23.8079 31.8127C20.9638 31.8127 20.6265 31.802 19.5036 31.7505C18.291 31.6955 17.1663 31.4523 16.3008 30.5868C15.4353 29.7213 15.1921 28.5966 15.1371 27.384C15.0856 26.2611 15.0749 25.9238 15.0749 23.0797C15.0749 20.2355 15.0856 19.8982 15.1371 18.7753C15.1921 17.5627 15.4353 16.438 16.3008 15.5725C17.1663 14.7071 18.291 14.4638 19.5036 14.4088C20.6265 14.3573 20.9638 14.3467 23.8079 14.3467ZM23.8079 12.4275C20.915 12.4275 20.5519 12.4399 19.4157 12.4914C17.6847 12.5704 16.1641 12.9947 14.9436 14.2153C13.723 15.4358 13.2987 16.9564 13.2197 18.6874C13.1682 19.8236 13.1558 20.1867 13.1558 23.0797C13.1558 25.9726 13.1682 26.3357 13.2197 27.4719C13.2987 29.2029 13.723 30.7235 14.9436 31.944C16.1641 33.1646 17.6847 33.5889 19.4157 33.6679C20.5519 33.7194 20.915 33.7318 23.8079 33.7318C26.7009 33.7318 27.064 33.7194 28.2002 33.6679C29.9312 33.5889 31.4518 33.1646 32.6723 31.944C33.8929 30.7235 34.3172 29.2029 34.3962 27.4719C34.4477 26.3357 34.4601 25.9726 34.4601 23.0797C34.4601 20.1867 34.4477 19.8236 34.3962 18.6874C34.3172 16.9564 33.8929 15.4358 32.6723 14.2153C31.4518 12.9947 29.9312 12.5704 28.2002 12.4914C27.064 12.4399 26.7009 12.4275 23.8079 12.4275Z" fill="white"/>
<path d="M23.808 17.6097C20.7872 17.6097 18.3381 20.0589 18.3381 23.0796C18.3381 26.1004 20.7872 28.5495 23.808 28.5495C26.8288 28.5495 29.2779 26.1004 29.2779 23.0796C29.2779 20.0589 26.8288 17.6097 23.808 17.6097ZM23.808 26.6304C21.8471 26.6304 20.2573 25.0405 20.2573 23.0796C20.2573 21.1187 21.8471 19.5289 23.808 19.5289C25.7689 19.5289 27.3588 21.1187 27.3588 23.0796C27.3588 25.0405 25.7689 26.6304 23.808 26.6304Z" fill="white"/>
<path d="M29.4943 18.6715C30.2003 18.6715 30.7726 18.0992 30.7726 17.3932C30.7726 16.6872 30.2003 16.1149 29.4943 16.1149C28.7884 16.1149 28.2161 16.6872 28.2161 17.3932C28.2161 18.0992 28.7884 18.6715 29.4943 18.6715Z" fill="white"/>
</g>
<defs>
<clipPath id="clip0">
<rect width="21.3043" height="21.3043" fill="white" transform="translate(13.1558 12.4275)"/>
</clipPath>
</defs>
</svg>
