<svg width="24" height="23" viewBox="0 0 24 23" fill="none" xmlns="http://www.w3.org/2000/svg">
<path d="M0.959961 22.9455H5.20394V5.96804H0.959961V22.9455ZM17.9375 5.96804C16.8487 6.01712 15.7824 6.29427 14.8075 6.78156C13.8327 7.26885 12.971 7.95542 12.2783 8.79682V5.96804H8.03433V22.9455H12.2783V13.0424C12.4662 12.1046 13.0188 11.2798 13.8146 10.7493C14.6105 10.2189 15.5844 10.0262 16.5223 10.2136C18.322 10.3317 19.2904 12.7105 19.3511 13.0424V22.9455L23.5791 22.9647V11.2108C23.5732 10.4898 23.4202 9.77754 23.1295 9.11774C22.8387 8.45793 22.4163 7.86444 21.8881 7.37361C21.3599 6.88277 20.7371 6.50494 20.0578 6.26325C19.3785 6.02156 18.657 5.92111 17.9375 5.96804ZM3.08195 0.308868C2.66226 0.308868 2.252 0.433319 1.90304 0.666486C1.55408 0.899653 1.2821 1.23107 1.12149 1.61882C0.960882 2.00656 0.918862 2.43321 1.00074 2.84484C1.08262 3.25646 1.28473 3.63457 1.58149 3.93133C1.87826 4.2281 2.25636 4.43021 2.66799 4.51208C3.07961 4.59396 3.50626 4.55192 3.89401 4.39131C4.28175 4.2307 4.61317 3.95874 4.84634 3.60978C5.0795 3.26082 5.20394 2.85054 5.20394 2.43085C5.20394 2.15218 5.14905 1.87627 5.04241 1.61882C4.93577 1.36137 4.77948 1.12743 4.58244 0.930386C4.38539 0.733342 4.15146 0.577038 3.89401 0.470398C3.63656 0.363758 3.36062 0.308868 3.08195 0.308868Z" fill="white"/>
</svg>
