<svg width="46" height="46" viewBox="0 0 46 46" fill="none" xmlns="http://www.w3.org/2000/svg">
<path d="M11.96 33.9455H16.2039V16.968H11.96V33.9455ZM28.9375 16.968C27.8487 17.0171 26.7824 17.2943 25.8075 17.7816C24.8327 18.2688 23.971 18.9554 23.2783 19.7968V16.968H19.0343V33.9455H23.2783V24.0424C23.4662 23.1046 24.0188 22.2798 24.8146 21.7493C25.6105 21.2189 26.5844 21.0262 27.5223 21.2136C29.322 21.3317 30.2904 23.7105 30.3511 24.0424V33.9455L34.5791 33.9647V22.2108C34.5732 21.4898 34.4202 20.7775 34.1295 20.1177C33.8387 19.4579 33.4163 18.8644 32.8881 18.3736C32.3599 17.8828 31.7371 17.5049 31.0578 17.2633C30.3785 17.0216 29.657 16.9211 28.9375 16.968ZM14.082 11.3089C13.6623 11.3089 13.252 11.4333 12.903 11.6665C12.5541 11.8997 12.2821 12.2311 12.1215 12.6188C11.9609 13.0066 11.9189 13.4332 12.0007 13.8448C12.0826 14.2565 12.2847 14.6346 12.5815 14.9313C12.8783 15.2281 13.2564 15.4302 13.668 15.5121C14.0796 15.594 14.5063 15.5519 14.894 15.3913C15.2817 15.2307 15.6132 14.9587 15.8463 14.6098C16.0795 14.2608 16.2039 13.8505 16.2039 13.4308C16.2039 13.1522 16.1491 12.8763 16.0424 12.6188C15.9358 12.3614 15.7795 12.1274 15.5824 11.9304C15.3854 11.7333 15.1515 11.577 14.894 11.4704C14.6366 11.3638 14.3606 11.3089 14.082 11.3089Z" fill="white"/>
<path d="M45.8485 22.6373C45.8489 18.16 44.5215 13.7832 42.0342 10.0604C39.547 6.33758 36.0117 3.43594 31.8753 1.72242C27.7389 0.0089086 23.1873 -0.439507 18.7961 0.433883C14.4048 1.30727 10.3712 3.46324 7.20533 6.62913C4.03944 9.79502 1.88347 13.8286 1.01008 18.2199C0.136695 22.6111 0.585111 27.1627 2.29862 31.2991C4.01214 35.4355 6.91378 38.9708 10.6366 41.458C14.3594 43.9453 18.7362 45.2727 23.2135 45.2723C29.2165 45.2719 34.9736 42.887 39.2184 38.6422C43.4632 34.3974 45.8481 28.6403 45.8485 22.6373ZM2.63497 22.6373C2.63497 18.5666 3.84206 14.5873 6.10361 11.2027C8.36516 7.81805 11.5796 5.18004 15.3404 3.62226C19.1012 2.06449 23.2395 1.6569 27.2319 2.45105C31.2244 3.2452 34.8917 5.20541 37.7701 8.08381C40.6485 10.9622 42.6087 14.6295 43.4029 18.622C44.197 22.6144 43.7894 26.7527 42.2317 30.5135C40.6739 34.2744 38.0359 37.4888 34.6512 39.7503C31.2666 42.0119 27.2873 43.219 23.2167 43.219C17.7581 43.219 12.523 41.0505 8.66321 37.1907C4.80339 33.3309 2.63497 28.0959 2.63497 22.6373Z" fill="white"/>
</svg>
