<svg width="46" height="46" viewBox="0 0 46 46" fill="none" xmlns="http://www.w3.org/2000/svg">
<path d="M33.4702 14.8681C32.6461 15.3526 31.7454 15.695 30.8062 15.8808C30.4112 15.4696 29.9359 15.1424 29.4094 14.9195C28.8829 14.6965 28.3161 14.5824 27.7436 14.584C26.6489 14.576 25.5952 14.9972 24.8116 15.7561C24.028 16.515 23.5778 17.5502 23.5589 18.6367C23.5594 18.9526 23.5971 19.2673 23.6713 19.5745C22.0114 19.4968 20.386 19.0764 18.899 18.3402C17.412 17.604 16.0959 16.5681 15.0349 15.2986C14.4975 16.1937 14.3323 17.2612 14.5742 18.275C14.8161 19.2889 15.4462 20.1694 16.3309 20.7301C15.6654 20.7067 15.015 20.5275 14.4325 20.2072V20.2578C14.4293 21.2156 14.7629 22.1446 15.3759 22.8845C15.9888 23.6243 16.8427 24.1286 17.7902 24.3105C17.1741 24.4736 16.5291 24.498 15.9024 24.3819C16.1772 25.1988 16.701 25.9107 17.4013 26.4191C18.1016 26.9275 18.9439 27.2073 19.8114 27.2197C18.3312 28.3622 16.5113 28.9855 14.6362 28.9924C14.2952 28.992 13.9546 28.9716 13.616 28.9314C15.5368 30.1375 17.7633 30.7771 20.0362 30.7756C23.1489 30.8321 26.1568 29.6589 28.3981 27.5142C30.6395 25.3695 31.9308 22.4289 31.988 19.3392C31.988 19.2706 31.988 19.2026 31.988 19.1352V18.6123C32.7883 18.0303 33.4796 17.3135 34.0304 16.4944C33.2639 16.8275 32.452 17.046 31.621 17.1428C32.4965 16.6341 33.1542 15.825 33.4702 14.8681Z" fill="white"/>
<path d="M22.788 0.203705C18.311 0.203705 13.9346 1.52149 10.2122 3.99041C6.48971 6.45934 3.58842 9.96851 1.87516 14.0742C0.161907 18.1799 -0.286358 22.6976 0.587052 27.0562C1.46046 31.4147 3.61632 35.4183 6.782 38.5607C9.94768 41.703 13.981 43.843 18.3719 44.7099C22.7629 45.5769 27.3142 45.132 31.4503 43.4313C35.5865 41.7307 39.1217 38.8508 41.609 35.1558C44.0963 31.4608 45.4238 27.1166 45.4238 22.6727C45.4238 16.7135 43.039 10.9985 38.7939 6.78472C34.5489 2.57097 28.7914 0.203705 22.788 0.203705V0.203705ZM22.788 43.0987C18.7181 43.0987 14.7396 41.9008 11.3556 39.6563C7.9716 37.4119 5.3341 34.2218 3.77662 30.4894C2.21914 26.757 1.81163 22.65 2.60563 18.6878C3.39963 14.7255 5.35947 11.0859 8.23732 8.22931C11.1152 5.37267 14.7818 3.42728 18.7735 2.63914C22.7651 1.85099 26.9026 2.2555 30.6627 3.8015C34.4228 5.3475 37.6366 7.96555 39.8977 11.3246C42.1589 14.6836 43.3657 18.6328 43.3657 22.6727C43.3657 28.09 41.1977 33.2855 37.3386 37.1161C33.4796 40.9467 28.2455 43.0987 22.788 43.0987Z" fill="white"/>
</svg>
