<svg width="1440" height="148" viewBox="0 0 1440 148" fill="none" xmlns="http://www.w3.org/2000/svg">
<path d="M1446.77 2.6146C1044.62 36.5174 342.772 97.7192 -58.7508 136.475C-101.151 140.568 -50.9747 135.126 -41.2901 134.233C71.8993 123.798 186.442 114.891 299.635 105.45C455.4 92.4588 610.783 80.1121 765.628 69.7355C831.67 65.3098 917.992 55.2188 984.611 49.6782C1053.47 43.9516 826.878 68.5203 758.126 75.0067C632.853 86.8257 507.105 95.683 381.76 106.286C256.472 116.885 130.77 127.719 5.52277 139.038C-13.2161 140.731 -30.3621 142.275 -48.7251 144.224C-68.3058 146.301 -52.8975 145.05 -47.6515 144.624C31.3581 138.21 109.612 133.305 188.972 126.669C369.824 111.547 551.041 95.3223 731.847 79.3386C924.94 62.2688 1117.2 37.9981 1310.31 22.8493C1354.4 19.3909 1402.57 12.2633 1446.46 10.1715" stroke="#D61E34" stroke-width="5" stroke-linecap="round"/>
</svg>
