<svg width="1440" height="155" viewBox="0 0 1440 155" fill="none" xmlns="http://www.w3.org/2000/svg">
<path d="M1463.56 3.83676C1061.41 37.7395 359.562 98.9414 -41.9612 137.697C-84.3613 141.79 -34.1852 136.348 -24.5005 135.456C88.6888 125.02 203.232 116.113 316.424 106.672C472.19 93.681 627.573 81.3343 782.418 70.9576C848.459 66.532 1181.88 27.6693 1248.5 22.1287C1317.36 16.402 843.667 69.7425 774.916 76.2289C649.643 88.0479 523.895 96.9052 398.55 107.508C273.262 118.107 147.559 128.942 22.3123 140.26C3.57344 141.954 -13.5726 143.497 -31.9356 145.446C-51.5162 147.524 -36.1079 146.272 -30.8619 145.846C48.1476 139.432 126.401 134.527 205.762 127.891C386.614 112.769 567.831 96.5445 748.637 80.5608C941.729 63.4909 1133.99 39.2203 1327.1 24.0715C1371.19 20.613 1419.36 13.4855 1463.25 11.3937" stroke="#3D9348" stroke-width="5" stroke-linecap="round"/>
</svg>
