<svg width="1440" height="98" viewBox="0 0 1440 98" fill="none" xmlns="http://www.w3.org/2000/svg">
<path d="M1298 74C905.369 52.2523 371.78 21.3767 -20.8911 4.1138C-62.3565 2.29088 -13.2071 3.90521 -3.74154 4.35962C106.888 9.67058 218.621 16.5447 329.121 22.7585C481.182 31.3095 632.788 40.3953 783.613 51.1984C847.941 55.8059 912.378 61.0989 977.41 64.7703C1044.63 68.5649 842.89 58.093 775.674 55.0014C653.198 49.368 530.658 40.9857 408.274 34.2399C285.946 27.4973 163.187 20.9148 40.8032 14.8309C22.4927 13.9207 5.73945 13.0825 -12.2421 12.4527C-31.416 11.7813 -16.3787 12.6577 -11.259 12.9563C65.8481 17.453 142.026 23.2202 219.501 27.5613C396.056 37.4541 573.111 46.3949 749.736 55.5004C938.364 65.2247 1128.52 73.4534 1316.91 84.9234C1361.36 87.6299 1404.32 90.9692 1446.96 94.803" stroke="#7B3589" stroke-width="5" stroke-linecap="round"/>
</svg>
